<?xml version="1.0" encoding="UTF-8"?>
<svg id="Layer_2" data-name="Layer 2" xmlns="http://www.w3.org/2000/svg" viewBox="0 0 349.79 400.77">
  <defs>
    <style>
      .cls-1 {
        fill: none;
        stroke: #fff;
      }

      .cls-1, .cls-2, .cls-3, .cls-4, .cls-5, .cls-6, .cls-7, .cls-8 {
        stroke-miterlimit: 10;
      }

      .cls-1, .cls-3, .cls-6 {
        stroke-width: 5px;
      }

      .cls-2, .cls-3, .cls-4, .cls-5 {
        fill: #fff;
      }

      .cls-2, .cls-3, .cls-6, .cls-7, .cls-8 {
        stroke: #000;
      }

      .cls-2, .cls-5 {
        stroke-width: 9px;
      }

      .cls-4, .cls-5 {
        stroke: #ff0606;
      }

      .cls-4, .cls-7 {
        stroke-width: 8px;
      }

      .cls-9 {
        fill: #ff0606;
      }

      .cls-8 {
        stroke-width: 3px;
      }
    </style>
  </defs>
  <g id="Layer_10" data-name="Layer 10">
    <g>
      <g>
        <path class="cls-9" d="M57.33,254.17c.96.2,1.91.4,2.87.6.43.09.95,1.21,1.54,3.36-1.36,4.58-2.69,9.16-4.01,13.74-2.11,7.36-5.8,18.54-10.75,33.58.26.24.52.48.78.72,11.96-18.03,23.05-30.6,32.6-37.83.84,0,1.68-.02,2.53-.02,1.21.98,1.94,2.37,2.22,4.18-.3.96-.6,1.92-.9,2.88-11.88,8.63-20.55,17.68-26.17,26.95-.05.18-.1.35-.15.53-.77,20.08.32,30.43,3.1,31.05.76,1.88.95,3.54.57,4.98-.05.19-.1.38-.15.57-1.79,2.02-3.27,2.9-4.46,2.64-3.97-.88-6.24-9.23-6.74-25.08-.25-.25-.51-.51-.76-.76-2.08,1.87-6.35,10.67-12.36,26.46-.73.45-1.47.91-2.2,1.37-.45-.09-.89-.18-1.34-.27-2.31-.78-3.19-2.35-2.63-4.74,4.8-14.93,11.05-36.43,19.54-64.41.48-1.72,1.61-7.57,3.49-17.54.88-1.47,2.01-2.45,3.39-2.95Z"/>
        <path class="cls-9" d="M104.1,260.61c.94.24,1.88.47,2.82.71,3,.75-.47,19.15-8.92,55.34-.48,3.95-.46,6,.05,6.13.15.04.3.08.45.12,7.48-1.73,11.89-2.36,13.19-2.01.3.08.59.16.89.24.4.11.84,1.25,1.32,3.43-.3.93-.59,1.85-.89,2.78-.51,1.59-3.49,2.41-8.96,2.52-4,1.12-6.37,2.14-7.14,3.01-.11.36-.22.73-.33,1.09.01,6.29-.07,9.74-.25,10.37-.28.94-.56,1.89-.84,2.83-.14.49-1.15,1.24-3.02,2.27-.73-.19-1.46-.38-2.18-.56-1.95-3-2.24-6.93-.82-11.8-.24-.26-.48-.53-.72-.79-3.23,1.01-10.07,5.39-20.22,13.31-.88-.21-1.76-.41-2.64-.62-.46-.11-.85-1.01-1.16-2.69.25-.95.51-1.91.76-2.86,6.8-14.75,17.83-41.95,35.5-81.15,1.03-.56,2.07-1.12,3.1-1.68ZM98.07,283.64c-1.23-.32-8.53,15.84-20.08,48.77.3.07.39.3.28.68,7.39-3.63,11.78-5.97,13.06-7.13,3.9-22.65,6.45-36.7,7.21-42.2-.15-.04-.31-.08-.46-.12Z"/>
        <path class="cls-9" d="M139.49,275.1c.92.26,1.84.53,2.76.8,6.03,1.75,13.19,14.19,20.78,37.35-.34,1.34-.68,2.69-1.01,4.03-2.33,6.22-8.25,8.21-17.91,6.14-1.76-.54-3.52-1.07-5.29-1.6-3.26-.97-5.94-2.16-8.04-3.56-.24.72-.66,1-1.25.83-1.62,6.69-3.64,13.72-6.04,21.08-1.1,3.37-2.19,6.75-3.26,10.13-.65,2.04-1.84,3.33-3.58,3.89-.72-.21-1.44-.41-2.16-.61-.49-.96-.97-1.91-1.46-2.87,7.52-25.06,11.6-38.7,11.38-41.04.62-.87,1.24-1.73,1.86-2.6,2.7-8.91,5.2-18.48,7.5-28.71,1.87-2.73,3.79-3.82,5.74-3.26ZM140.63,285.89c-.51.47-1.01.94-1.52,1.41-.07.2-.14.4-.21.6-5.2,14.56-6.76,22.12-4.99,22.63,4.44,2.53,7.34,4.02,8.76,4.45,7.43,1.21,11.43,1.03,12.04-.64.98-3.67-1.73-10.98-8.44-21.84-2.92-4.17-4.82-6.37-5.64-6.61Z"/>
        <path class="cls-9" d="M180.71,292.16c.45.15.9.3,1.35.45,2.39.8,2.91,2.85,1.58,6.16-6.23,15.57-14.27,37.05-23.43,64.55-.97.51-1.93,1.02-2.9,1.53-.56-.19-1.13-.37-1.69-.56-.9-1.33-1.3-2.91-1.17-4.73.64-1.83,1.57-4.01,2.79-6.54,8.84-26.6,15.88-46.35,20.36-59.39,1.04-.49,2.08-.98,3.12-1.47Z"/>
        <path class="cls-9" d="M237.51,309.58c1.59.63,2.34,1.99,2.24,4.07-.42.91-.83,1.82-1.25,2.74-.7,1.55-5.95,2.62-15.72,3.41-8.91,1.48-18.07,4.2-27.4,8.17-.07.18-.15.37-.22.55,0,.42,0,.83-.01,1.25,4.92,1.31,8.58,2.44,10.99,3.33.43.16.86.32,1.29.48,7.45,3.5,10.24,7.36,8.5,11.47-.15.35-.29.7-.44,1.05-.87,2.09-7.09,6.63-18.32,13.91-16.92,12.65-25.18,19.18-25.69,18.99-.69-.24-1.38-.48-2.07-.72-.38-.13-.73-1.29-1.08-3.49.4-1.11.8-2.22,1.2-3.32,23.46-16.91,36.29-25.49,36.81-26.94.07-.17.14-.34.21-.51-.46-1.04-2.07-2.28-4.86-3.69-7.48-1.7-14.99-3.33-22.52-4.88-.7-2.41-.78-4.31-.25-5.71,1.36-3.47,11.83-8.75,31.95-15.04,9.03-2.38,17.92-4.08,26.64-5.11Z"/>
        <path class="cls-9" d="M269.19,315.59c.86.37,1.71.73,2.57,1.1.73.62.84,2.16.32,4.61-12.58,22.12-20.17,37.08-23.6,44.6-.57,1.25-1.14,2.51-1.7,3.76-.03.42-.05.83-.08,1.25,1.04.21,2.08.43,3.12.65.54.23,1.09.47,1.63.7.43.18.64,1.15.63,2.89-.49,1.07-.98,2.15-1.46,3.22-.28.62-2.9,1.4-7.84,2.4-.29.29-.58.58-.86.87-3.39,9.84-5.39,15.6-6.11,17.28-.2.46-1.25,1.08-3.15,1.85-.27-.11-.53-.23-.8-.34-2.12-.9-2.43-3.15-.89-6.76.92-2.17,1.85-4.33,2.78-6.49.22-.52.05-1.23-.51-2.13-3.43,1.15-8.33,4.43-14.58,9.9-.74-.09-1.49-.18-2.23-.27-1.55-.62-2.24-2.38-2.07-5.27,2.5-4.55,8.06-17.12,17.31-37.52,6.58-15,10.82-26.06,12.43-33.25.25-.54.5-1.08.74-1.61.24-.51,1.38-1.13,3.42-1.86.86.35,1.72.7,2.59,1.05,1.58.65.63,5.19-2.78,13.63-7.1,14.63-12.56,26.63-16.6,35.94-1.81,4.16-3.6,8.33-5.37,12.5-.23.75-.11,1.23.35,1.42.58.21,4.87-2.09,13.03-6.76,12.96-28.57,22.2-47.19,26.54-56.16,1.05-.4,2.11-.79,3.16-1.18Z"/>
      </g>
      <ellipse class="cls-8" cx="188.82" cy="207.65" rx="10.44" ry="15.73"/>
      <path class="cls-8" d="M317.8,222.01c-16.69-20.72-14.37-20.13-22.06-28.8-25.49-28.74-58.78-44.5-100.35-63.37,0,0,0,0,0,0l-85.09,32.23-47.38,45.77v20.31l42.55,8.06h21.92l29.65,45.13s140.54,33.52,171.48,17.41c3.48-7.36,6.96-14.75,10.44-22.16,3.04-6.47,6.06-12.94,9.06-19.39-7-7.65-17.75-19.72-30.2-35.18ZM208.04,213.61c-4.56-1.36-8.67-1.87-12.07-1.99-3.27-.37-7.86-.41-13.16,1.08-6.31,1.78-11.11,5.04-14.17,7.53v-.06c0-13.78,12.06-25.12,26.72-25.12s26.72,11.34,26.72,25.12c-3.57-2.33-8.29-4.86-14.03-6.57Z"/>
      <path class="cls-1" d="M294.2,259.8c2.38.47,5.23,1.27,8.31,2.65,5.63,2.52,9.58,5.89,12.03,8.39,1.01-1.8,2.7-4.3,5.38-6.7,3.3-2.95,6.64-4.44,8.77-5.19"/>
      <polyline class="cls-3" points="296.21 200.53 304.21 225.38 314.21 200.65"/>
      <polyline class="cls-3" points="256.74 206.96 270.05 232.41 273.27 201.38"/>
      <path class="cls-2" d="M265.04,128.44c.22-3.48.6-7.22,1.2-11.18.66-4.39,1.51-8.46,2.44-12.18-2.4-3.53-4.8-7.22-7.19-11.07-3.44-5.54-6.57-10.95-9.4-16.18,0,0,.84-58.93-18.38-72.42,0,0-25.07,15.93-38.02,56.73,0,0-53.9-7.85-95.27,12.16,0,0-30.5-37.66-54.74-47.47,0,0-19.22,63.94,10.45,91.8,0,0-2.09,35.7-40.11,27.85,0,0,15.04,36.48,40.11,30.99-1.56,3.58-6.09,12.61-16.71,19.42-11.2,7.18-22.44,7.58-26.51,7.54,5.71,4.6,12.9,9.64,21.69,14.33,5.53,2.95,10.81,5.29,15.66,7.16-3.38,2.88-8.81,8.3-12.45,16.59-5.3,12.07-3.58,22.9-2.62,27.25,1.71-2.65,7.63-11.07,19.49-15.18,14.27-4.95,26.64-.01,29.16,1.05-1.17,2.24-2.32,4.63-3.42,7.16-2.71,6.23-4.59,12.13-5.9,17.46,4.63-2.07,10.41-4.09,17.24-5.3,19.92-3.52,36.44,2.06,44.19,5.3-2.23,2.34-4.59,5.06-6.95,8.19-2.41,3.2-4.38,6.26-6.01,9.07,12.04-1.92,26.42-3.18,42.57-2.55,37.32,1.47,66.66,12.37,84.87,20.99,4.54-4.34,9.09-8.67,13.63-13.01-34.43-16.63-61.82-25.23-81-30.05-10.17-2.55-44.85-10.77-44.86-10.77,0,0-1.39-3.36-1.43-3.46-.72-1.75-2.83-9.03-8.77-32.54,0,0-51.81,15.69-55.57,4.71,1.49-3.35,3.82-8.06,7.27-13.34,2.83-4.34,13.59-20.03,36.35-33.45,17.6-10.38,41.2-11.86,41.2-11.86,41.67,19.21,58.71,23.48,58.71,23.48,11.4,2.86,20.18,3.88,27.25,4.69,17.25,1.96,43.58,3.08,76.17-2.87-.04-4.39.34-9.27.84-14.56.73-7.8,2.09-16.62,4.6-20.74,0,0-43.04-10.98-59.75-33.74Z"/>
      <path class="cls-5" d="M110.48,118.47s36.07,2.47,63.5,21.59"/>
      <path class="cls-5" d="M161.84,106.34c-5.81,3.31-14.44,9.16-22.46,18.82-6.91,8.34-10.88,16.51-13.16,22.33"/>
      <path class="cls-4" d="M224.02,107.18s20.12,7.08,32.72,22.26"/>
      <path class="cls-4" d="M255.14,108.36c-3.83.97-9.65,2.94-15.73,7.17-5.24,3.65-8.78,7.68-10.99,10.63"/>
      <path class="cls-6" d="M269.45,169.48s28.46-1.5,33.33-3.74c0,0,1.03,2.71,1.83,5.66.59,2.21.79,5.49.42,7.07-2.04,8.67-35.89,10.22-38.04,3.52-.28-.89.19-3.04,1.15-7.35.48-2.17.96-3.94,1.31-5.16Z"/>
      <path class="cls-7" d="M287.64,178.19c.84,1.43,3.37,6.13,3.01,12.69-.31,5.71-2.64,9.61-3.59,11.05"/>
    </g>
  </g>
</svg>