<svg width="1629" height="325" viewBox="0 0 1629 325" fill="none" xmlns="http://www.w3.org/2000/svg">
<path d="M18.0078 24.4448H29.9434C56.0879 24.4448 101.841 57.5991 167.202 123.908L169.191 137.833C169.191 160.093 147.973 172.645 105.535 175.486H81.6641C66.9814 175.486 54.3828 174.208 43.8682 171.65C43.8682 174.208 42.542 175.486 39.8896 175.486C42.542 198.6 43.8682 223.181 43.8682 249.231V285.038C43.8682 292.237 40.5527 297.542 33.9219 300.952H23.9756L14.0293 292.995C12.7031 204.899 10.0508 157.157 6.07227 149.768L10.0508 139.68C8.72461 108.42 5.40918 75.2656 0.104492 40.2168C3.60938 29.7021 9.57715 24.4448 18.0078 24.4448ZM37.9004 58.1201L33.9219 64.0879V66.2192C33.9219 117.94 37.9004 143.8 45.8574 143.8C67.3604 147.779 81.2852 149.768 87.6318 149.768C119.46 146.453 135.374 141.811 135.374 135.843C133.953 123.055 112.071 102.452 69.7285 74.0342C52.1094 63.4248 41.5 58.1201 37.9004 58.1201ZM300.767 56.1309C311.376 56.1309 319.333 60.7725 324.638 70.0557L322.648 90.0903C366.412 117.561 388.294 147.4 388.294 179.607V189.553C388.294 229.717 355.14 260.882 288.831 283.048C270.833 289.679 252.267 292.995 233.132 292.995H229.153C188.8 292.995 164.929 277.081 157.54 245.252V221.381C157.54 188.417 179.422 147.968 223.186 100.037C225.838 100.037 227.164 97.3369 227.164 91.9375C209.924 88.5273 201.304 84.5488 201.304 80.002V70.0557C201.304 68.0664 203.956 65.4141 209.261 62.0986H213.239C243.268 66.0771 259.845 68.0664 262.971 68.0664C277.274 60.1094 289.873 56.1309 300.767 56.1309ZM183.4 219.392V231.328C183.4 255.199 199.978 267.134 233.132 267.134C269.791 267.134 305.598 254.488 340.552 229.196C353.34 216.503 360.634 202.578 362.434 187.422V183.585C362.434 159.241 347.183 136.648 316.681 115.809C299.725 106.62 285.137 100.652 272.917 97.9053C237.11 115.24 209.261 148.442 189.368 197.51C185.39 206.415 183.4 213.708 183.4 219.392ZM490.03 0.57373C521.669 0.57373 560.128 36.3804 605.407 107.994L607.396 119.929V127.744C607.396 150.763 564.959 169.376 480.084 183.585L476.105 189.553C485.199 198.931 510.396 210.867 551.697 225.36C555.771 225.36 560.412 229.338 565.622 237.295V251.22C565.622 253.02 562.307 256.335 555.676 261.167H549.708C546.677 261.167 526.121 251.22 488.041 231.328H482.073C482.073 232.654 481.41 233.317 480.084 233.317C482.736 257.756 484.062 279.638 484.062 298.962L474.116 306.919H462.181C455.55 303.509 452.234 298.205 452.234 291.005V217.261C452.234 215.745 436.983 206.509 406.481 189.553C403.829 185.196 402.503 181.217 402.503 177.618V169.519C407.145 161.562 413.112 157.583 420.406 157.583H444.277C446.172 157.583 448.161 155.594 450.245 151.615V80.002C450.245 37.5645 457.539 12.3672 472.127 4.41016C481.221 3.08398 487.188 1.80518 490.03 0.57373ZM474.116 151.615C476.769 152.089 478.095 153.462 478.095 155.736C543.077 143.895 575.568 131.296 575.568 117.94C557.381 79.8599 535.499 53.9521 509.923 40.2168C504.05 34.9121 498.082 32.2598 492.02 32.2598H490.03C479.421 32.2598 474.116 72.0449 474.116 151.615ZM828.488 32.2598H832.467C834.267 32.2598 837.582 35.6226 842.413 42.3481V50.1631C839.382 57.2676 820.152 65.9351 784.725 76.1655C754.223 89.8062 738.972 99.042 738.972 103.873L733.004 221.381C734.33 248.947 734.993 274.144 734.993 296.973L725.047 304.93H721.068C713.206 304.93 707.901 300.952 705.154 292.995C709.133 193.626 711.122 135.938 711.122 119.929C708.564 118.603 706.575 117.94 705.154 117.94C693.977 122.392 674.084 135.606 645.477 157.583H629.562C627.479 157.583 624.826 154.978 621.605 149.768V141.811C621.605 132.054 637.52 120.119 669.348 106.004C695.871 91.9849 709.133 83.3174 709.133 80.002L707.144 62.0986C709.322 56.1309 713.301 51.5366 719.079 48.3159H729.025C736.982 53.5259 740.961 59.4937 740.961 66.2192H742.95C796.66 43.5796 825.173 32.2598 828.488 32.2598ZM917.721 44.1953C935.719 44.1953 969.536 50.8262 1019.17 64.0879C1024.48 69.7715 1027.13 75.0762 1027.13 80.002C1027.13 85.4014 1023.81 90.0903 1017.18 94.0688H1005.25C966.126 79.481 936.95 72.187 917.721 72.187C877.936 75.2183 858.043 83.791 858.043 97.9053C856.717 97.9053 856.054 98.6157 856.054 100.037C859.559 128.644 868.179 152.515 881.914 171.65C925.678 174.302 947.56 178.944 947.56 185.575V197.51C943.771 204.141 939.792 207.457 935.624 207.457C932.403 207.457 922.457 206.746 905.785 205.325C904.459 207.978 903.796 209.967 903.796 211.293C926.341 248.805 937.613 275.375 937.613 291.005C937.613 296.31 933.635 301.615 925.678 306.919H913.742C903.133 298.962 897.828 292.332 897.828 287.027C897.828 286.174 899.154 281.533 901.807 273.102C861.927 196.847 839.382 149.105 834.172 129.875C830.193 116.519 828.204 105.247 828.204 96.0581C828.204 68.019 851.412 51.3945 897.828 46.1846C904.743 44.8584 911.374 44.1953 917.721 44.1953ZM1142.22 56.1309C1152.83 56.1309 1160.79 60.7725 1166.09 70.0557L1164.1 90.0903C1207.87 117.561 1229.75 147.4 1229.75 179.607V189.553C1229.75 229.717 1196.6 260.882 1130.29 283.048C1112.29 289.679 1093.72 292.995 1074.59 292.995H1070.61C1030.26 292.995 1006.38 277.081 998.996 245.252V221.381C998.996 188.417 1020.88 147.968 1064.64 100.037C1067.29 100.037 1068.62 97.3369 1068.62 91.9375C1051.38 88.5273 1042.76 84.5488 1042.76 80.002V70.0557C1042.76 68.0664 1045.41 65.4141 1050.72 62.0986H1054.7C1084.72 66.0771 1101.3 68.0664 1104.43 68.0664C1118.73 60.1094 1131.33 56.1309 1142.22 56.1309ZM1024.86 219.392V231.328C1024.86 255.199 1041.43 267.134 1074.59 267.134C1111.25 267.134 1147.05 254.488 1182.01 229.196C1194.8 216.503 1202.09 202.578 1203.89 187.422V183.585C1203.89 159.241 1188.64 136.648 1158.14 115.809C1141.18 106.62 1126.59 100.652 1114.37 97.9053C1078.57 115.24 1050.72 148.442 1030.82 197.51C1026.85 206.415 1024.86 213.708 1024.86 219.392ZM1253.91 32.2598H1263.85C1271.81 36.9961 1275.79 42.9639 1275.79 50.1631V72.187C1275.79 96.9106 1274.46 159.904 1271.81 261.167C1272.47 277.081 1275.12 285.038 1279.77 285.038C1301.84 274.428 1314.44 269.124 1317.56 269.124H1323.53C1325.33 269.124 1328.64 272.439 1333.48 279.07V289.016C1333.48 296.689 1310.93 308.625 1265.84 324.823H1255.89C1250.12 321.507 1246.14 316.866 1243.96 310.898C1247.94 214.845 1249.93 149.2 1249.93 113.961C1249.93 102.31 1247.94 77.7285 1243.96 40.2168L1253.91 32.2598ZM1357.63 38.2275H1363.6C1374.21 38.2275 1379.51 44.1953 1379.51 56.1309C1379.51 112.304 1380.84 189.269 1383.49 287.027L1373.54 294.984H1365.59C1359.81 291.668 1355.83 287.027 1353.65 281.059C1353.65 274.523 1354.32 266.566 1355.64 257.188C1352.99 162.746 1350.34 92.4111 1347.68 46.1846L1357.63 38.2275ZM1540.93 56.1309C1551.54 56.1309 1559.49 60.7725 1564.8 70.0557L1562.81 90.0903C1606.57 117.561 1628.45 147.4 1628.45 179.607V189.553C1628.45 229.717 1595.3 260.882 1528.99 283.048C1510.99 289.679 1492.43 292.995 1473.29 292.995H1469.31C1428.96 292.995 1405.09 277.081 1397.7 245.252V221.381C1397.7 188.417 1419.58 147.968 1463.35 100.037C1466 100.037 1467.32 97.3369 1467.32 91.9375C1450.08 88.5273 1441.46 84.5488 1441.46 80.002V70.0557C1441.46 68.0664 1444.12 65.4141 1449.42 62.0986H1453.4C1483.43 66.0771 1500 68.0664 1503.13 68.0664C1517.43 60.1094 1530.03 56.1309 1540.93 56.1309ZM1423.56 219.392V231.328C1423.56 255.199 1440.14 267.134 1473.29 267.134C1509.95 267.134 1545.76 254.488 1580.71 229.196C1593.5 216.503 1600.79 202.578 1602.59 187.422V183.585C1602.59 159.241 1587.34 136.648 1556.84 115.809C1539.88 106.62 1525.3 100.652 1513.08 97.9053C1477.27 115.24 1449.42 148.442 1429.53 197.51C1425.55 206.415 1423.56 213.708 1423.56 219.392Z" fill="#0026FF"/>
</svg>
