<?xml version="1.0" encoding="UTF-8"?>
<svg id="Layer_2" data-name="Layer 2" xmlns="http://www.w3.org/2000/svg" viewBox="0 0 330.3 287.63">
  <defs>
    <style>
      .cls-1, .cls-2, .cls-3 {
        fill: #fff;
      }

      .cls-1, .cls-2, .cls-3, .cls-4, .cls-5, .cls-6 {
        stroke-miterlimit: 10;
      }

      .cls-1, .cls-3 {
        stroke-width: 9px;
      }

      .cls-1, .cls-4, .cls-5, .cls-6 {
        stroke: #000;
      }

      .cls-2, .cls-3 {
        stroke: #ff0606;
      }

      .cls-2, .cls-4, .cls-6 {
        stroke-width: 8px;
      }

      .cls-4 {
        fill: none;
      }

      .cls-5 {
        stroke-width: 5px;
      }
    </style>
  </defs>
  <g id="Layer_10" data-name="Layer 10">
    <g>
      <path class="cls-1" d="M265.04,128.44c.22-3.48.6-7.22,1.2-11.18.66-4.39,1.51-8.46,2.44-12.18-2.4-3.53-4.8-7.22-7.19-11.07-3.44-5.54-6.57-10.95-9.4-16.18,0,0,.84-58.93-18.38-72.42,0,0-25.07,15.93-38.02,56.73,0,0-53.9-7.85-95.27,12.16,0,0-30.5-37.66-54.74-47.47,0,0-19.22,63.94,10.45,91.8,0,0-2.09,35.7-40.11,27.85,0,0,15.04,36.48,40.11,30.99-1.56,3.58-6.09,12.61-16.71,19.42-11.2,7.18-22.44,7.58-26.51,7.54,5.71,4.6,12.9,9.64,21.69,14.33,5.53,2.95,10.81,5.29,15.66,7.16-3.38,2.88-8.81,8.3-12.45,16.59-5.3,12.07-3.58,22.9-2.62,27.25,1.71-2.65,7.63-11.07,19.49-15.18,14.27-4.95,26.64-.01,29.16,1.05-1.17,2.24-2.32,4.63-3.42,7.16-2.71,6.23-4.59,12.13-5.9,17.46,5.09-.92,10.99-2.51,17.24-5.3,18.83-8.39,29.56-22.58,34.49-30.28.92,1.96,5.77,12.8.91,24.71-2.95,7.24-8.07,11.38-10.53,13.12,35.32-1.43,62.26-8.18,80.59-14.23,23.15-7.64,35.55-15.16,61.19-20.66,23.94-5.13,44.38-5.27,58.04-4.56-.88-17.34-.25-37.73,3.77-60.15,1.31-7.31,2.87-14.23,4.6-20.74,0,0-43.04-10.98-59.75-33.74Z"/>
      <path class="cls-3" d="M110.48,118.47s36.07,2.47,63.5,21.59"/>
      <path class="cls-3" d="M161.84,106.34c-5.81,3.31-14.44,9.16-22.46,18.82-6.91,8.34-10.88,16.51-13.16,22.33"/>
      <path class="cls-2" d="M224.02,107.18s20.12,7.08,32.72,22.26"/>
      <path class="cls-2" d="M255.14,108.36c-3.83.97-9.65,2.94-15.73,7.17-5.24,3.65-8.78,7.68-10.99,10.63"/>
      <path class="cls-5" d="M269.45,169.48s28.46-1.5,33.33-3.74c0,0,1.03,2.71,1.83,5.66.59,2.21.79,5.49.42,7.07-2.04,8.67-35.89,10.22-38.04,3.52-.28-.89.19-3.04,1.15-7.35.48-2.17.96-3.94,1.31-5.16Z"/>
      <path class="cls-6" d="M287.64,178.19c.84,1.43,3.37,6.13,3.01,12.69-.31,5.71-2.64,9.61-3.59,11.05"/>
      <path class="cls-4" d="M168.84,222.13c14.21,5.24,36.94,11.6,65.25,10.97,38.72-.86,67.74-14.33,82.33-22.41"/>
      <path class="cls-4" d="M173.98,221.92c-7.18,8.57-14.36,17.14-21.54,25.71l-6.42-29.75c-5.59-.13-13.42-.96-22.17-4.08-13.31-4.75-22.16-12.45-26.84-17.21"/>
    </g>
  </g>
</svg>