<?xml version="1.0" encoding="UTF-8"?>
<svg id="Layer_2" data-name="Layer 2" xmlns="http://www.w3.org/2000/svg" viewBox="0 0 349.79 321.34">
  <defs>
    <style>
      .cls-1 {
        fill: none;
        stroke: #fff;
      }

      .cls-1, .cls-2, .cls-3, .cls-4, .cls-5, .cls-6, .cls-7, .cls-8 {
        stroke-miterlimit: 10;
      }

      .cls-1, .cls-3, .cls-6 {
        stroke-width: 5px;
      }

      .cls-2, .cls-3, .cls-4, .cls-5 {
        fill: #fff;
      }

      .cls-2, .cls-3, .cls-6, .cls-7, .cls-8 {
        stroke: #000;
      }

      .cls-2, .cls-5 {
        stroke-width: 9px;
      }

      .cls-4, .cls-5 {
        stroke: #ff0606;
      }

      .cls-4, .cls-7 {
        stroke-width: 8px;
      }

      .cls-8 {
        stroke-width: 3px;
      }
    </style>
  </defs>
  <g id="Layer_10" data-name="Layer 10">
    <g>
      <ellipse class="cls-8" cx="188.82" cy="207.65" rx="10.44" ry="15.73"/>
      <path class="cls-8" d="M317.8,222.01c-16.69-20.72-14.37-20.13-22.06-28.8-25.49-28.74-58.78-44.5-100.35-63.37,0,0,0,0,0,0l-85.09,32.23-47.38,45.77v20.31l42.55,8.06h21.92l29.65,45.13s140.54,33.52,171.48,17.41c3.48-7.36,6.96-14.75,10.44-22.16,3.04-6.47,6.06-12.94,9.06-19.39-7-7.65-17.75-19.72-30.2-35.18ZM208.04,213.61c-4.56-1.36-8.67-1.87-12.07-1.99-3.27-.37-7.86-.41-13.16,1.08-6.31,1.78-11.11,5.04-14.17,7.53v-.06c0-13.78,12.06-25.12,26.72-25.12s26.72,11.34,26.72,25.12c-3.57-2.33-8.29-4.86-14.03-6.57Z"/>
      <path class="cls-1" d="M294.2,259.8c2.38.47,5.23,1.27,8.31,2.65,5.63,2.52,9.58,5.89,12.03,8.39,1.01-1.8,2.7-4.3,5.38-6.7,3.3-2.95,6.64-4.44,8.77-5.19"/>
      <polyline class="cls-3" points="296.21 200.53 304.21 225.38 314.21 200.65"/>
      <polyline class="cls-3" points="256.74 206.96 270.05 232.41 273.27 201.38"/>
      <path class="cls-2" d="M265.04,128.44c.22-3.48.6-7.22,1.2-11.18.66-4.39,1.51-8.46,2.44-12.18-2.4-3.53-4.8-7.22-7.19-11.07-3.44-5.54-6.57-10.95-9.4-16.18,0,0,.84-58.93-18.38-72.42,0,0-25.07,15.93-38.02,56.73,0,0-53.9-7.85-95.27,12.16,0,0-30.5-37.66-54.74-47.47,0,0-19.22,63.94,10.45,91.8,0,0-2.09,35.7-40.11,27.85,0,0,15.04,36.48,40.11,30.99-1.56,3.58-6.09,12.61-16.71,19.42-11.2,7.18-22.44,7.58-26.51,7.54,5.71,4.6,12.9,9.64,21.69,14.33,5.53,2.95,10.81,5.29,15.66,7.16-3.38,2.88-8.81,8.3-12.45,16.59-5.3,12.07-3.58,22.9-2.62,27.25,1.71-2.65,7.63-11.07,19.49-15.18,14.27-4.95,26.64-.01,29.16,1.05-1.17,2.24-2.32,4.63-3.42,7.16-2.71,6.23-4.59,12.13-5.9,17.46,4.63-2.07,10.41-4.09,17.24-5.3,19.92-3.52,36.44,2.06,44.19,5.3-2.23,2.34-4.59,5.06-6.95,8.19-2.41,3.2-4.38,6.26-6.01,9.07,12.04-1.92,26.42-3.18,42.57-2.55,37.32,1.47,66.66,12.37,84.87,20.99,4.54-4.34,9.09-8.67,13.63-13.01-34.43-16.63-61.82-25.23-81-30.05-10.17-2.55-44.85-10.77-44.86-10.77,0,0-1.39-3.36-1.43-3.46-.72-1.75-2.83-9.03-8.77-32.54,0,0-51.81,15.69-55.57,4.71,1.49-3.35,3.82-8.06,7.27-13.34,2.83-4.34,13.59-20.03,36.35-33.45,17.6-10.38,41.2-11.86,41.2-11.86,41.67,19.21,58.71,23.48,58.71,23.48,11.4,2.86,20.18,3.88,27.25,4.69,17.25,1.96,43.58,3.08,76.17-2.87-.04-4.39.34-9.27.84-14.56.73-7.8,2.09-16.62,4.6-20.74,0,0-43.04-10.98-59.75-33.74Z"/>
      <path class="cls-5" d="M110.48,118.47s36.07,2.47,63.5,21.59"/>
      <path class="cls-5" d="M161.84,106.34c-5.81,3.31-14.44,9.16-22.46,18.82-6.91,8.34-10.88,16.51-13.16,22.33"/>
      <path class="cls-4" d="M224.02,107.18s20.12,7.08,32.72,22.26"/>
      <path class="cls-4" d="M255.14,108.36c-3.83.97-9.65,2.94-15.73,7.17-5.24,3.65-8.78,7.68-10.99,10.63"/>
      <path class="cls-6" d="M269.45,169.48s28.46-1.5,33.33-3.74c0,0,1.03,2.71,1.83,5.66.59,2.21.79,5.49.42,7.07-2.04,8.67-35.89,10.22-38.04,3.52-.28-.89.19-3.04,1.15-7.35.48-2.17.96-3.94,1.31-5.16Z"/>
      <path class="cls-7" d="M287.64,178.19c.84,1.43,3.37,6.13,3.01,12.69-.31,5.71-2.64,9.61-3.59,11.05"/>
    </g>
  </g>
</svg>